<svg
    width="20"
    height="20"
    viewBox="0 0 20 20"
    fill="white"
    xmlns="http://www.w3.org/2000/svg"
>

    <g clip-path="url(#clip0_1504_392)">
        <path d="M18.3334 10.0001C18.3334 5.39758 14.6025 1.66675 10 1.66675C5.39752 1.66675 1.66669 5.39758 1.66669 10.0001C1.66669 14.6026 5.39752 18.3334 10 18.3334C14.6025 18.3334 18.3334 14.6026 18.3334 10.0001Z"
        stroke="#3f85e8"
        stroke-width="2"
        stroke-linecap="round"
        stroke-linejoin="round"/>
        <path d="M16.6667 4.74925C15.8875 4.80508 14.89 5.10758 14.1984 6.00258C12.9484 7.61925 11.6992 7.75508 10.8659 7.21592C9.61585 6.40758 10.6667 5.09675 9.20002 4.38508C8.24419 3.92091 8.11085 2.65841 8.64335 1.66675M1.66669 9.16675C2.30252 9.71842 3.19169 10.2234 4.24085 10.2234C6.40752 10.2234 6.84085 10.6376 6.84085 12.2934C6.84085 13.9492 6.84085 13.9492 7.27419 15.1909C7.55585 15.9992 7.65419 16.8059 7.09252 17.5001M18.3334 11.2101C17.5942 10.7851 16.6667 10.6092 15.7275 11.2834C13.9317 12.5751 12.6925 11.5051 12.135 12.5742C11.3142 14.1476 14.2467 14.6417 11.6667 18.3334"
        stroke="#3f85e8"
        stroke-width="2"
        stroke-linecap="round"
        stroke-linejoin="round"/>
    </g>
    <defs>
        <clipPath id="clip0_1504_392">
            <rect width="20" height="20" fill="white"/>
        </clipPath>
    </defs>
</svg>
